<?xml version="1.0" encoding="utf-8"?>
<!-- Generator: Adobe Illustrator 25.0.1, SVG Export Plug-In . SVG Version: 6.00 Build 0)  -->
<svg version="1.1" id="Calque_1" xmlns="http://www.w3.org/2000/svg" xmlns:xlink="http://www.w3.org/1999/xlink" x="0px" y="0px"
	 viewBox="0 0 448 512" style="enable-background:new 0 0 448 512;" xml:space="preserve">
<style type="text/css">
	.st0{fill:#FFFFFF;}
</style>
<path class="st0" d="M439.9,377.7l-7.4-8.3c-31.2-35.2-48.5-80.5-48.5-127.6V223c0-77.4-55-142-128-156.8V47c0-17.7-14.3-32-32-32
	s-32,14.3-32,32v19.2C119,81,64,145.6,64,223v18.8c0,47-17.3,92.4-48.5,127.6l-7.4,8.3c-8.4,9.4-10.4,22.9-5.3,34.4
	C7.9,423.6,19.4,431,32,431h384c12.6,0,24-7.4,29.2-18.9S448.3,387.1,439.9,377.7z"/>
<path class="st0" d="M160,431c0,17,6.7,33.3,18.7,45.3S207,495,224,495s33.3-6.7,45.3-18.7S288,448,288,431h-64H160z"/>
</svg>
