<?xml version="1.0" encoding="utf-8"?>
<!-- Generator: Adobe Illustrator 25.0.1, SVG Export Plug-In . SVG Version: 6.00 Build 0)  -->
<svg version="1.1" id="Calque_1" xmlns="http://www.w3.org/2000/svg" xmlns:xlink="http://www.w3.org/1999/xlink" x="0px" y="0px"
	 viewBox="0 0 500 500" style="enable-background:new 0 0 500 500;" xml:space="preserve">
<style type="text/css">
	.st0{fill:none;stroke:#000000;stroke-width:19;stroke-linecap:round;stroke-miterlimit:10;}
</style>
<g>
	<path d="M321,173c6.6,0,12,5.4,12,12v279.8c0,6.6-5.4,12-12,12H179.1c-6.6,0-12-5.4-12-12V185c0-6.6,5.4-12,12-12H321 M321,155
		H179.1c-16.6,0-30,13.4-30,30v279.8c0,16.6,13.4,30,30,30H321c16.6,0,30-13.4,30-30V185C351,168.4,337.6,155,321,155L321,155z"/>
</g>
<g>
	<path d="M250,211.4c24.1,0,43.8,18.7,43.8,41.8S274.2,295,250,295s-43.8-18.7-43.8-41.8S225.9,211.4,250,211.4 M250,193.4
		c-34.1,0-61.8,26.8-61.8,59.8S215.9,313,250,313s61.8-26.8,61.8-59.8S284.2,193.4,250,193.4L250,193.4z"/>
</g>
<path class="st0" d="M158.1,121.6c51.2-47.2,132.8-50.8,183.8,5.7"/>
<path class="st0" d="M76.6,85.3C179.7-2.9,293.5-18.2,423,85.5"/>
</svg>
